<?xml version="1.0" encoding="UTF-8" standalone="no"?>
<svg width="256px" height="256px" viewBox="0 0 256 256" version="1.1" xmlns="http://www.w3.org/2000/svg" xmlns:xlink="http://www.w3.org/1999/xlink" xmlns:sketch="http://www.bohemiancoding.com/sketch/ns">
    <!-- Generator: Sketch 3.1.1 (8761) - http://www.bohemiancoding.com/sketch -->
    <title>Yum</title>
    <desc>Created with Sketch.</desc>
    <defs></defs>
    <g id="Page-1" stroke="none" stroke-width="1" fill="none" fill-rule="evenodd" sketch:type="MSPage">
        <g id="wordpress-plugin-icon" sketch:type="MSArtboardGroup">
            <g id="Yum" sketch:type="MSLayerGroup">
                <path d="M255.9616,128 C255.9616,198.677333 198.6624,255.978667 127.9808,255.978667 C57.2970667,255.978667 0,198.677333 0,128 C0,57.3013333 57.2970667,0 127.9808,0 C198.6624,0 255.9616,57.3013333 255.9616,128" id="Fill-509" fill="#D15B2B" sketch:type="MSShapeGroup"></path>
                <path d="M146.424752,102.63022 C145.176752,100.603553 142.448219,100.07022 139.316485,100.32622 C136.871685,100.539553 134.919685,101.456887 134.514352,101.73422 C134.000219,102.05422 133.827419,102.63022 133.865819,103.01422 C133.976752,104.144887 134.853552,105.040887 134.126085,109.41422 C133.707952,111.91022 130.091952,131.963553 130.091952,131.963553 C127.943685,133.136887 125.588485,133.99022 123.873285,133.99022 C120.944219,133.99022 119.423152,132.795553 120.184752,128.23022 C120.944219,124.00622 123.606619,108.880887 123.606619,108.880887 C124.082352,106.192887 124.058885,104.016887 123.207685,102.63022 C121.959685,100.603553 119.231152,100.07022 116.101552,100.32622 C113.656752,100.539553 111.704752,101.456887 111.299419,101.73422 C110.785285,102.05422 110.614619,102.63022 110.650885,103.01422 C110.757552,104.144887 111.634352,105.040887 110.913285,109.392887 C109.515952,117.22222 107.476485,128.656887 107.058352,131.17422 C105.539419,139.94222 108.357552,146.363553 116.927152,146.363553 C118.934619,146.363553 124.086619,145.083553 128.709552,142.82222 C129.259952,146.491553 132.762885,147.259553 136.434352,146.939553 C138.537819,146.747553 140.837552,145.915553 141.407152,145.531553 C141.921285,145.19022 142.008752,144.635553 141.968219,144.251553 C141.861552,143.120887 140.942085,142.224887 141.667419,137.851553 C142.085552,135.355553 146.842885,108.880887 146.842885,108.880887 C147.318619,106.192887 147.273819,104.016887 146.424752,102.63022" id="Fill-510" fill="#FFFFFF" sketch:type="MSShapeGroup"></path>
                <path d="M210.029239,105.036298 C208.239372,101.238964 205.538572,100.662964 202.138039,100.278964 C197.551372,100.065631 191.548172,102.817631 188.077239,104.993631 L187.955639,104.737631 C186.362039,101.409631 183.644172,100.662964 180.190306,100.278964 C176.036706,100.086964 171.245239,102.177631 167.460706,104.140298 C166.479372,101.238964 163.031906,100.769631 159.981239,101.025631 C157.534306,101.238964 155.582306,102.156298 155.176972,102.433631 C154.662839,102.753631 154.494306,103.329631 154.530572,103.713631 C154.624439,104.716298 155.311372,105.505631 154.989239,108.641631 C150.368439,135.073631 150.801506,132.598964 149.640972,139.084298 C149.169506,141.772298 149.192972,143.948298 150.042039,145.334964 C151.285772,147.361631 154.018572,147.894964 157.148172,147.638964 C159.592972,147.425631 161.547106,146.508298 161.952439,146.230964 C162.464439,145.889631 162.637239,145.334964 162.598839,144.950964 C162.502839,143.948298 161.713506,142.454964 162.133772,140.044298 L166.515639,115.084298 C168.149772,113.889631 170.867639,112.694964 172.282039,112.694964 C175.115106,112.694964 175.878839,114.444298 175.223906,118.262964 L171.627106,139.084298 C171.151372,141.772298 171.176972,143.948298 172.023906,145.334964 C173.274039,147.361631 176.004706,147.894964 179.132172,147.638964 C181.579106,147.425631 183.533239,146.508298 183.940706,146.230964 C184.450572,145.889631 184.619106,145.334964 184.584972,144.950964 C184.491106,143.990964 183.659106,142.838964 184.096439,140.300298 C184.531639,137.782964 188.456972,115.084298 188.456972,115.084298 C190.093239,113.889631 192.813239,112.694964 194.223372,112.694964 C197.007372,112.694964 197.794572,114.358964 197.203639,118.028298 L193.553506,139.084298 C193.079906,141.772298 193.103372,143.948298 193.954572,145.334964 C195.200439,147.361631 197.931106,147.894964 201.060706,147.638964 C203.509772,147.425631 205.459639,146.508298 205.862839,146.230964 C206.381239,145.889631 206.551906,145.334964 206.513506,144.950964 C206.413239,143.926964 205.700706,143.116298 206.074039,139.809631 L210.404706,115.062964 C211.042572,111.244298 211.144972,107.382964 210.029239,105.036298" id="Fill-511" fill="#FFFFFF" sketch:type="MSShapeGroup"></path>
                <path d="M75.1666971,175.54607 C72.8669637,176.868737 70.5010971,177.060737 69.0632304,175.396737 C67.5400304,173.647404 67.1005637,164.09007 82.2386971,161.231404 C82.2386971,161.231404 79.8450971,172.815404 75.1666971,175.54607 L75.1666971,175.54607 Z M207.781097,152.591404 C207.292564,152.207404 206.667497,152.31407 206.328297,152.527404 C176.510697,170.212737 131.685097,152.292737 97.0098971,150.351404 L107.606164,90.0207369 C108.08403,87.3114036 108.060564,85.1140702 107.20723,83.7274036 C105.944297,81.6794036 103.192297,81.1247369 100.03923,81.4020702 C97.5730971,81.6154036 95.6040304,82.5327369 95.1944304,82.8100702 C94.6760304,83.1514036 94.5053637,83.7274036 94.5458971,84.1114036 C94.6525637,85.2634036 95.5357637,86.1594036 94.8061637,90.5540702 C94.6482971,91.4927369 91.1666971,110.90607 88.2162971,127.35407 C80.1586971,132.196737 69.9954971,134.159404 67.9304304,131.428737 C66.9106971,130.04207 67.1368304,127.41807 68.1181637,123.492737 C68.3336304,122.61807 72.9202971,105.252737 74.2002971,100.28207 C76.6493637,90.7460702 74.7976304,82.0207369 64.9352304,81.1460702 C56.4360304,80.3780702 48.3229637,85.3700702 45.8802971,87.9727369 C44.1138971,89.8500702 44.7026971,92.1114036 46.2877637,94.8420702 C47.5314971,96.9754036 49.1954971,98.3620702 49.6136304,98.6180702 C50.1405637,98.9380702 50.8061637,98.9594036 51.0664304,98.6607369 C53.9101637,95.4607369 59.0877637,93.0500702 60.8840304,94.5434036 C62.4648304,95.8447369 61.8610971,98.2767369 61.2424304,100.623404 C61.2424304,100.623404 55.7064304,121.46607 53.4557637,130.148737 C51.7981637,136.527404 53.4258971,142.351404 58.1042971,145.14607 C64.5853637,149.11407 79.5549637,145.871404 85.7458971,141.135404 C84.7581637,146.61807 84.1010971,150.26607 84.1010971,150.26607 C78.7378971,150.735404 71.2626971,152.868737 65.8973637,156.068737 C55.1240304,162.532737 50.7698971,177.21007 57.6712304,184.76207 C64.5640304,192.335404 76.6216304,189.476737 81.5240304,186.17007 C89.8077637,180.580737 93.6712304,170.148737 95.3352304,160.292737 C128.267497,161.871404 181.96563,185.33807 209.70323,165.860737 C214.142697,162.74607 211.82803,155.748737 207.781097,152.591404 L207.781097,152.591404 Z" id="Fill-512" fill="#FFFFFF" sketch:type="MSShapeGroup"></path>
            </g>
        </g>
    </g>
</svg>